{
	"asset":{
		"generator":"Khronos glTF Blender I/O v3.5.30",
		"version":"2.0"
	},
	"extensionsUsed":[
		"KHR_lights_punctual"
	],
	"extensionsRequired":[
		"KHR_lights_punctual"
	],
	"extensions":{
		"KHR_lights_punctual":{
			"lights":[
				{
					"color":[
						1,
						1,
						1
					],
					"intensity":543.5141306588226,
					"type":"point",
					"name":"Light.002"
				}
			]
		}
	},
	"scene":0,
	"scenes":[
		{
			"name":"Scene",
			"nodes":[
				0,
				1,
				2,
				3,
				4
			]
		}
	],
	"nodes":[
		{
			"mesh":0,
			"name":"apple_Sphere_009",
			"rotation":[
				0.70710688829422,
				0,
				0,
				0.7071066498756409
			],
			"scale":[
				1.5147565603256226,
				1.5147567987442017,
				1.5147567987442017
			]
		},
		{
			"camera":0,
			"name":"Camera",
			"rotation":[
				-0.20997299253940582,
				0.3857799470424652,
				0.09062844514846802,
				0.8937962055206299
			],
			"translation":[
				7.358891487121582,
				4.958309173583984,
				6.925790786743164
			]
		},
		{
			"extensions":{
				"KHR_lights_punctual":{
					"light":0
				}
			},
			"name":"Light",
			"rotation":[
				-0.28416624665260315,
				0.7269423604011536,
				0.34203389286994934,
				0.5232754349708557
			],
			"translation":[
				4.076245307922363,
				5.903861999511719,
				-1.0054539442062378
			]
		},
		{
			"mesh":1,
			"name":"stem_Cylinder",
			"rotation":[
				0.70710688829422,
				0,
				0,
				0.7071066498756409
			],
			"scale":[
				1.5147565603256226,
				1.5147567987442017,
				1.5147567987442017
			]
		},
		{
			"name":"\u9762\u5149",
			"rotation":[
				-0.7071068286895752,
				0,
				0,
				0.7071068286895752
			],
			"translation":[
				0,
				0.8377765417098999,
				0
			]
		}
	],
	"cameras":[
		{
			"name":"Camera.002",
			"perspective":{
				"aspectRatio":1.7777777777777777,
				"yfov":0.39959652046304894,
				"zfar":100,
				"znear":0.10000000149011612
			},
			"type":"perspective"
		}
	],
	"materials":[
		{
			"doubleSided":true,
			"name":"None.002",
			"pbrMetallicRoughness":{
				"baseColorFactor":[
					0.1378718614578247,
					0.8000000715255737,
					0.060231439769268036,
					1
				],
				"metallicFactor":0.3676975965499878,
				"roughnessFactor":0.2646048069000244
			}
		}
	],
	"meshes":[
		{
			"name":"apple_Sphere_009.002",
			"primitives":[
				{
					"attributes":{
						"POSITION":0,
						"TEXCOORD_0":1,
						"NORMAL":2
					},
					"indices":3,
					"material":0
				}
			]
		},
		{
			"name":"stem_Cylinder.002",
			"primitives":[
				{
					"attributes":{
						"POSITION":4,
						"TEXCOORD_0":5,
						"NORMAL":6
					},
					"indices":7,
					"material":0
				}
			]
		}
	],
	"accessors":[
		{
			"bufferView":0,
			"componentType":5126,
			"count":3113,
			"max":[
				0.368137001991272,
				0.35532400012016296,
				0.29838499426841736
			],
			"min":[
				-0.38787201046943665,
				-0.38301101326942444,
				-0.2175389975309372
			],
			"type":"VEC3"
		},
		{
			"bufferView":1,
			"componentType":5126,
			"count":3113,
			"type":"VEC2"
		},
		{
			"bufferView":2,
			"componentType":5126,
			"count":3113,
			"type":"VEC3"
		},
		{
			"bufferView":3,
			"componentType":5123,
			"count":17664,
			"type":"SCALAR"
		},
		{
			"bufferView":4,
			"componentType":5126,
			"count":451,
			"max":[
				0.024617999792099,
				0.036329999566078186,
				-0.08727899938821793
			],
			"min":[
				-0.10542500019073486,
				-0.045503001660108566,
				-0.3931660056114197
			],
			"type":"VEC3"
		},
		{
			"bufferView":5,
			"componentType":5126,
			"count":451,
			"type":"VEC2"
		},
		{
			"bufferView":6,
			"componentType":5126,
			"count":451,
			"type":"VEC3"
		},
		{
			"bufferView":7,
			"componentType":5123,
			"count":690,
			"type":"SCALAR"
		}
	],
	"bufferViews":[
		{
			"buffer":0,
			"byteLength":37356,
			"byteOffset":0,
			"target":34962
		},
		{
			"buffer":0,
			"byteLength":24904,
			"byteOffset":37356,
			"target":34962
		},
		{
			"buffer":0,
			"byteLength":37356,
			"byteOffset":62260,
			"target":34962
		},
		{
			"buffer":0,
			"byteLength":35328,
			"byteOffset":99616,
			"target":34963
		},
		{
			"buffer":0,
			"byteLength":5412,
			"byteOffset":134944,
			"target":34962
		},
		{
			"buffer":0,
			"byteLength":3608,
			"byteOffset":140356,
			"target":34962
		},
		{
			"buffer":0,
			"byteLength":5412,
			"byteOffset":143964,
			"target":34962
		},
		{
			"buffer":0,
			"byteLength":1380,
			"byteOffset":149376,
			"target":34963
		}
	],
	"buffers":[
		{
			"byteLength":150756,
			"uri":"data:application/octet-stream;base64,"
		}
	]
}
